{"title":"Lovelace.2013.WEBRip XViD AC3 juggs","uid":8796844,"size":1465617178,"categoryP":"video","categoryS":"movies","magnet":"?xt=urn:btih:af1ad9ed6d2050b5127779ef1ab2c07b7426e3ad&amp;dn=Lovelace.2013.WEBRip+XViD+AC3+juggs&amp;tr=udp%3A%2F%2Ftracker.openbittorrent.com%3A80&amp;tr=udp%3A%2F%2Fopen.demonii.com%3A1337&amp;tr=udp%3A%2F%2Ftracker.coppersurfer.tk%3A6969&amp;tr=udp%3A%2F%2Fexodus.desync.com%3A6969","seeders":11,"leechers":6,"uploader":"xxxlavalxxx","files":-1,"time":1376094517,"description":"  &lt;a href=&quot;\nhttp://www.imdb.com/title/tt1426329/&quot; rel=&quot;nofollow&quot; target=&quot;_NEW&quot;&gt;\nhttp://www.imdb.com/title/tt1426329/&lt;/a&gt;\n\n\n\nThe story of Linda Lovelace, who is used and abused by the porn industry at the behest of her coercive husband, before taking control of her life. \n\n\n\nDirectors:\n Rob Epstein, Jeffrey Friedman \n\nWriter:\n Andy Bellin \n\nStars:\n Amanda Seyfried, Peter Sarsgaard, Juno Temple\n\nGenres:\n  Biography |  Drama \n\nCountry:\n USA \n\nLanguage:\n English \n\n\n\nFormat : AVI\n Format/Info : Audio Video Interleave\n File size : 1.35 GiB\n Duration : 1h 32mn\n Overall bit rate : 2 087 Kbps\n Writing library : VirtualDub build 32842/release\n\n Video\n ID : 0\n Format : MPEG-4 Visual\n Format profile : Advanced Simple@L5\n Format settings, BVOP : 2\n Format settings, QPel : No\n Format settings, GMC : No warppoints\n Format settings, Matrix : Default (H.263)\n Muxing mode : Packed bitstream\n Codec ID : XVID\n Codec ID/Hint : XviD\n Duration : 1h 32mn\n Bit rate : 1 693 Kbps\n Width : 720 pixels\n Height : 384 pixels\n Display aspect ratio : 1.85:1\n Frame rate : 23.976 fps\n Color space : YUV\n Chroma subsampling : 4:2:0\n Bit depth : 8 bits\n Scan type : Progressive\n Compression mode : Lossy\n Bits/(Pixel*Frame) : 0.255\n Stream size : 1.10 GiB (81%)\n Writing library : XviD 1.2.1 (UTC 2008-12-04)\n\n Audio\n ID : 1\n Format : AC-3\n Format/Info : Audio Coding 3\n Mode extension : CM (complete main)\n Format settings, Endianness : Big\n Codec ID : 2000\n Duration : 1h 32mn\n Bit rate mode : Constant\n Bit rate : 384 Kbps\n Channel(s) : 6 channels\n Channel positions : Front: L C R, Side: L R, LFE\n Sampling rate : 48.0 KHz\n Bit depth : 16 bits\n Compression mode : Lossy\n Stream size : 255 MiB (18%)\n Alignment : Aligned on interleaves\n Interleave, duration : 42 ms (1.00 video frame)\n Interleave, preload duration : 512 ms\n\n\n &lt;a href=&quot;\nhttp://bayimg.com/DaomAAaeD&quot; rel=&quot;nofollow&quot; target=&quot;_NEW&quot;&gt;\nhttp://bayimg.com/DaomAAaeD&lt;/a&gt; &lt;a href=&quot;\nhttp://bayimg.com/DaoMBaAEd&quot; rel=&quot;nofollow&quot; target=&quot;_NEW&quot;&gt;\nhttp://bayimg.com/DaoMBaAEd&lt;/a&gt; &lt;a href=&quot;\nhttp://bayimg.com/DaomCAAEd&quot; rel=&quot;nofollow&quot; target=&quot;_NEW&quot;&gt;\nhttp://bayimg.com/DaomCAAEd&lt;/a&gt;\n","torrent":{"xt":"urn:btih:af1ad9ed6d2050b5127779ef1ab2c07b7426e3ad","amp;dn":"Lovelace.2013.WEBRip+XViD+AC3+juggs","amp;tr":["udp%3A%2F%2Ftracker.openbittorrent.com%3A80","udp%3A%2F%2Fopen.demonii.com%3A1337","udp%3A%2F%2Ftracker.coppersurfer.tk%3A6969","udp%3A%2F%2Fexodus.desync.com%3A6969"],"infoHash":"af1ad9ed6d2050b5127779ef1ab2c07b7426e3ad","infoHashBuffer":{"type":"Buffer","data":[175,26,217,237,109,32,80,181,18,119,121,239,26,178,192,123,116,38,227,173]},"announce":[],"urlList":[]}}